<svg xmlns="http://www.w3.org/2000/svg" xmlns:xlink="http://www.w3.org/1999/xlink" width="500" zoomAndPan="magnify" viewBox="0 0 375 374.999991" height="500" preserveAspectRatio="xMidYMid meet" version="1.0"><defs><clipPath id="8f78e8fb4f"><path d="M 37.5 54.671875 L 337.5 54.671875 L 337.5 320.171875 L 37.5 320.171875 Z M 37.5 54.671875 " clip-rule="nonzero"/></clipPath></defs><g clip-path="url(#8f78e8fb4f)"><path fill="#808080" d="M 163.964844 320.246094 C 160.5625 320.132812 157.101562 319.890625 153.5625 319.46875 C 139.417969 317.789062 125.246094 313.800781 116.875 311.226562 C 112.257812 309.496094 103.3125 305.742188 99.558594 303.722656 C 97.117188 302.480469 88.933594 296.886719 87.542969 295.539062 C 81.9375 292.070312 69.382812 280.261719 61.28125 269.261719 C 59.503906 265.863281 53.117188 255.664062 51.734375 251.195312 C 48.054688 243.636719 45.484375 234.492188 43.976562 230.589844 C 42.386719 221.472656 39.703125 215.597656 38.648438 206.445312 C 38.769531 204.292969 38.222656 199.222656 37.730469 196.417969 C 38.445312 190.152344 37.488281 184.25 38.734375 177.433594 C 39.828125 171.679688 41.273438 169.273438 41.617188 164.074219 C 41.953125 161.847656 44.816406 155.15625 45.578125 152.179688 C 47.890625 147.273438 48.460938 143.230469 51.480469 137.753906 C 55.828125 129.210938 60.367188 119.382812 67.351562 110.800781 C 69.34375 108.140625 75 101.753906 76.925781 99.539062 C 81.480469 94.992188 84.148438 94.269531 89.316406 89.703125 C 89.851562 89.367188 93.265625 85.476562 96.835938 84.140625 C 102.757812 79.566406 107.875 77.886719 113.507812 73.722656 C 124.800781 68.101562 128.914062 66.203125 140.125 61.539062 C 146.601562 59.226562 155.636719 57.953125 158.886719 56.691406 C 165.078125 56.304688 171.359375 54.328125 177.867188 54.722656 C 185.175781 54.652344 192.539062 55.175781 199.878906 55.84375 C 204.867188 56.152344 211.328125 56.390625 220.09375 58.292969 C 231.222656 59.964844 242.589844 63.855469 248.519531 65.664062 C 260.460938 69.316406 279.851562 80.660156 286.695312 86.105469 C 289.933594 88.679688 296.746094 95.417969 299.382812 98.8125 C 301.953125 102.113281 306.859375 109.273438 309.992188 113.683594 C 314.972656 120.964844 320.84375 131.808594 325.824219 141.785156 C 331.382812 152.933594 331.765625 156.164062 333.445312 165.480469 L 337.121094 181.914062 C 337.464844 184.75 337.75 195.171875 331.632812 196.632812 C 325.519531 198.089844 319.867188 195.269531 317.203125 191.148438 C 313.515625 185.441406 314.023438 177.339844 309.851562 168.066406 C 306.597656 160.570312 305.175781 149.679688 299.980469 141.847656 L 295.90625 134.957031 C 288.695312 123.859375 281.179688 115.050781 276.699219 109.304688 C 272.753906 104.480469 265.382812 97.917969 258.394531 93.246094 C 251.933594 89.328125 241.496094 84.859375 233.960938 82.5625 C 231.558594 81.78125 221.289062 78.761719 214.902344 77.910156 C 206.234375 76.933594 200.535156 75.566406 192.300781 74.984375 C 182.136719 74.269531 177.261719 73.363281 164.074219 74.90625 C 159.082031 76.261719 151.164062 76.796875 144.042969 79.523438 C 138.289062 81.871094 130.292969 85.65625 122.453125 90.261719 C 114.019531 94.890625 101.214844 104.347656 92.722656 112.425781 C 84.164062 121.570312 79.882812 126.476562 73.984375 138.070312 C 71.367188 143.808594 66.3125 152.675781 64.277344 158.941406 C 62.886719 165.296875 60.230469 177.15625 60.679688 182.917969 C 60.878906 193.238281 59.976562 195.367188 60.75 203.800781 C 60.78125 211.394531 63.273438 216.660156 64.308594 222.871094 C 65.195312 227.164062 69.316406 242.007812 71.859375 245.457031 C 83.4375 270.402344 98.976562 281.207031 116.300781 289 C 121.179688 291.484375 136.457031 295.574219 140.878906 296.746094 C 148.414062 298.105469 158.332031 299.011719 167.875 299.199219 C 177.917969 299.394531 191.757812 298.035156 200.160156 294.945312 C 209.246094 291.597656 219.757812 286.847656 219.636719 286.980469 C 223.855469 284.652344 230.292969 280.863281 232.296875 279.195312 C 236.171875 276.710938 238.503906 275.746094 240.800781 273.355469 C 244.117188 270.460938 246.121094 268.789062 248.628906 265.199219 C 250.027344 263.171875 252.242188 260.078125 254.40625 257.339844 C 256.730469 253.527344 258.066406 249.511719 260.339844 244.550781 C 263.054688 237.203125 262.632812 237.558594 263.148438 229.753906 C 263.632812 227.492188 263.09375 219.894531 262.683594 218.601562 C 261.460938 211.59375 261.894531 205.40625 260.289062 198.597656 C 258.121094 189.386719 256.320312 182.492188 253.550781 173.65625 C 250.949219 163.707031 243.304688 154.488281 237.570312 147.902344 C 234.015625 143.820312 222.996094 134.1875 207.699219 128.164062 C 203.390625 126.714844 196.339844 125.070312 191.867188 124.253906 C 182.3125 123.253906 180.757812 123.894531 171.609375 124.566406 C 168.460938 125.113281 161.144531 126.609375 158.460938 127.554688 C 150.601562 130.3125 147.710938 132.070312 139.675781 136.988281 C 135.933594 139.160156 133.113281 140.824219 129.292969 144.40625 C 126.238281 147.234375 124.0625 152.03125 121.589844 154.847656 C 118.203125 159.453125 114.433594 165.597656 111.90625 172.226562 C 109.164062 178.816406 108.28125 188.101562 108.695312 194.074219 C 108.695312 198.625 109.933594 206.957031 110.429688 208.78125 C 110.917969 210.605469 112.148438 216.265625 112.417969 217.398438 C 112.683594 218.535156 115.625 224.523438 116.03125 225.386719 C 117.691406 228.917969 120.867188 233.996094 126.222656 239.175781 C 130.171875 243.492188 137.804688 247.726562 143.519531 249.363281 C 148.640625 252.179688 157.285156 252.652344 162.066406 252.664062 C 164.417969 252.519531 170.429688 252.148438 173.570312 251.398438 C 179.925781 249.871094 181.101562 249.828125 187.660156 246.984375 C 193.542969 244.253906 197.535156 243.273438 201.628906 240.246094 C 201.628906 240.246094 207.257812 235.835938 209.8125 232.613281 C 211.164062 230.910156 213.476562 222.804688 213.0625 217.78125 C 212.871094 210.902344 213.871094 207 212.464844 201.34375 C 211.0625 195.683594 208.664062 189.125 206.070312 185.082031 C 203.4375 180.992188 197.78125 177.003906 191.347656 173.828125 C 187.742188 172.050781 179.207031 170.398438 175.585938 169.972656 C 168.703125 169.15625 162.945312 172.277344 159.453125 175.847656 C 156.421875 179.3125 150.429688 186.503906 152.820312 193.941406 C 154.976562 200.671875 157.585938 207.84375 167.679688 207.3125 C 174.609375 208.753906 182.621094 206.660156 185.285156 207.890625 C 189.25 210.140625 190.769531 215.105469 189.328125 218.570312 C 188.324219 225.246094 181.929688 226.050781 175.105469 226.554688 C 168.996094 227.578125 153.484375 224.589844 150.070312 222.035156 C 147.785156 220.675781 144.28125 217.410156 141.816406 215.207031 C 140.042969 213.621094 138.035156 210.085938 136.664062 207.542969 C 134.984375 204.421875 134.128906 202.125 133.699219 200.089844 C 133.183594 197.675781 132.128906 193.066406 132.527344 188.457031 C 132.796875 185.347656 133.628906 184.027344 134.460938 179.480469 C 136.109375 174.328125 138.15625 170.402344 141.457031 165.9375 C 145.75 161.574219 151.210938 156.382812 156.535156 153.972656 C 161.230469 151.488281 169.457031 150.582031 176.902344 151.015625 C 182.941406 151.59375 190.089844 152.328125 194.8125 153.914062 C 202.894531 156.800781 205.203125 157.375 211.84375 161.558594 C 217.453125 165.03125 223.09375 171.414062 226.238281 176.707031 C 232.9375 190.40625 236.777344 205.652344 233.984375 226.175781 C 233.757812 229.644531 232.675781 233.03125 230.511719 237.621094 C 228.515625 241.859375 225.015625 247.011719 219.761719 250.894531 C 217.648438 252.855469 214.3125 255.261719 211.597656 256.671875 C 207.742188 259.015625 205.152344 260.230469 201.128906 262.25 C 197.597656 263.910156 193.476562 265.808594 188.109375 267.300781 C 182.292969 269.597656 177.824219 269.695312 170.511719 270.785156 C 163.304688 272.59375 143.601562 271.304688 131.859375 266.125 C 123.847656 262.753906 114.855469 256.816406 108.019531 249.578125 C 104.222656 245.601562 100.507812 238.375 99.417969 236.902344 C 93.980469 226.449219 92.917969 216.625 92.046875 214.558594 C 90.863281 211.753906 90.273438 205.460938 89.480469 201.15625 C 88.582031 196.335938 89.140625 176.101562 94.011719 163.113281 C 96.757812 157.945312 98.363281 153.335938 100.21875 150.914062 C 103.5625 146.160156 105.171875 143.195312 108.015625 139.824219 C 112.296875 134.628906 115.417969 130.394531 119.589844 127.40625 C 130.21875 118.761719 139.097656 114.203125 151.109375 108.496094 C 166.03125 102.421875 170.511719 103.679688 184.636719 103.902344 C 190.992188 103.960938 200.234375 105.957031 204.78125 106.78125 C 213.222656 107.90625 218.058594 109.9375 223.769531 111.53125 C 229.875 113.234375 233.40625 115.957031 238.410156 118.984375 C 242.539062 121.648438 247.386719 125.296875 250.59375 128.261719 C 258.792969 134.273438 262.75 140.59375 267.773438 148.355469 C 268.6875 149.660156 274.65625 162.375 275.605469 165.917969 C 276.046875 167.695312 277.394531 172.789062 278.265625 175.761719 C 279.378906 180.484375 279.917969 184.664062 281.160156 189.992188 C 282.277344 195.476562 284.167969 205.835938 284.992188 215.523438 C 286.371094 223.828125 284.15625 240.789062 282.851562 245.992188 C 279.949219 255.699219 274.867188 267.542969 264.835938 278.953125 C 260.570312 284.003906 256.042969 287.921875 250.808594 292.167969 C 246.804688 295.507812 243.371094 297.453125 237.1875 301.144531 C 228.785156 306.15625 222.398438 309.355469 210.621094 313.957031 C 205.828125 315.496094 199.789062 317.519531 193.28125 318.871094 C 183.824219 319.742188 174.167969 320.589844 163.964844 320.246094 Z M 163.964844 320.246094 " fill-opacity="1" fill-rule="evenodd"/></g></svg>